<?xml version="1.0" encoding="UTF-8"?>
<svg width="13px" height="13px" viewBox="0 0 13 13" version="1.1" xmlns="http://www.w3.org/2000/svg" xmlns:xlink="http://www.w3.org/1999/xlink">
    <title>1564532_clocks_hour_time_timer_icon</title>
    <g id="06-|-Fild-Job" stroke="none" stroke-width="1" fill="none" fill-rule="evenodd">
        <g id="Full-HD-Copy-3" transform="translate(-976.000000, -274.000000)" fill="#767676" fill-rule="nonzero">
            <g id="Group-4" transform="translate(976.000000, 272.000000)">
                <g id="1564532_clocks_hour_time_timer_icon" transform="translate(0.000000, 2.000000)">
                    <path d="M6.5,0 C2.925,0 0,2.925 0,6.5 C0,10.075 2.925,13 6.5,13 C10.075,13 13,10.075 13,6.5 C13,2.925 10.075,0 6.5,0 Z M6.5,11.375 C3.79166667,11.375 1.625,9.20833333 1.625,6.5 C1.625,3.79166667 3.79166667,1.625 6.5,1.625 C9.20833333,1.625 11.375,3.79166667 11.375,6.5 C11.375,9.20833333 9.20833333,11.375 6.5,11.375 Z" id="Shape"></path>
                    <path d="M7.58333333,6.06666667 L7.58333333,3.79166667 C7.58333333,3.19583333 7.09583333,2.70833333 6.5,2.70833333 C5.90416667,2.70833333 5.41666667,3.19583333 5.41666667,3.79166667 L5.41666667,6.5 C5.41666667,6.77083333 5.525,7.04166667 5.74166667,7.25833333 L7.36666667,8.88333333 C7.58333333,9.1 7.85416667,9.20833333 8.125,9.20833333 C8.39583333,9.20833333 8.66666667,9.1 8.88333333,8.88333333 C9.31666667,8.45 9.31666667,7.8 8.88333333,7.36666667 L7.58333333,6.06666667 Z" id="Path"></path>
                </g>
            </g>
        </g>
    </g>
</svg>