<?xml version="1.0" encoding="UTF-8"?>
<svg width="18px" height="18px" viewBox="0 0 18 18" version="1.1" xmlns="http://www.w3.org/2000/svg" xmlns:xlink="http://www.w3.org/1999/xlink">
    <title>9104239_close_delete_remove_trash_cancel_icon</title>
    <g id="10-|-Worker-PO" stroke="none" stroke-width="1" fill="none" fill-rule="evenodd">
        <g id="account-info" transform="translate(-1694.000000, -590.000000)" fill="#868686" fill-rule="nonzero">
            <g id="Group-20" transform="translate(1186.000000, 336.000000)">
                <g id="Group-13" transform="translate(50.000000, 218.000000)">
                    <g id="9104239_close_delete_remove_trash_cancel_icon" transform="translate(458.000000, 36.000000)">
                        <path d="M5.3,12.7 C5.5,12.9 5.7,13 6,13 C6.3,13 6.5,12.9 6.7,12.7 L9,10.4 L11.3,12.7 C11.5,12.9 11.8,13 12,13 C12.2,13 12.5,12.9 12.7,12.7 C13.1,12.3 13.1,11.7 12.7,11.3 L10.4,9 L12.7,6.7 C13.1,6.3 13.1,5.7 12.7,5.3 C12.3,4.9 11.7,4.9 11.3,5.3 L9,7.6 L6.7,5.3 C6.3,4.9 5.7,4.9 5.3,5.3 C4.9,5.7 4.9,6.3 5.3,6.7 L7.6,9 L5.3,11.3 C4.9,11.7 4.9,12.3 5.3,12.7 Z" id="Path"></path>
                        <path d="M9,18 C14,18 18,14 18,9 C18,4 14,0 9,0 C4,0 0,4 0,9 C0,14 4,18 9,18 Z M9,2 C12.9,2 16,5.1 16,9 C16,12.9 12.9,16 9,16 C5.1,16 2,12.9 2,9 C2,5.1 5.1,2 9,2 Z" id="Shape"></path>
                    </g>
                </g>
            </g>
        </g>
    </g>
</svg>