<?xml version="1.0" encoding="UTF-8"?>
<svg width="9px" height="13px" viewBox="0 0 9 13" version="1.1" xmlns="http://www.w3.org/2000/svg" xmlns:xlink="http://www.w3.org/1999/xlink">
    <title>Shape</title>
    <g id="06-|-Fild-Job" stroke="none" stroke-width="1" fill="none" fill-rule="evenodd">
        <g id="Full-HD-Copy-3" transform="translate(-1232.000000, -517.000000)" fill="#000000" fill-rule="nonzero">
            <g id="Group-16-Copy-3" transform="translate(1205.000000, 447.000000)">
                <g id="Group-18" transform="translate(27.000000, 51.000000)">
                    <path d="M4.5,19.8125 C2.03313762,19.8152985 0.0340484853,21.8143876 0.03125,24.28125 C0.03125,28.1050781 4.09375,30.9945312 4.26640625,31.1164062 C4.40788912,31.2106095 4.59211088,31.2106095 4.73359375,31.1164062 C4.90625,30.9945312 8.96875,28.1050781 8.96875,24.28125 C8.96595151,21.8143876 6.96686238,19.8152985 4.5,19.8125 Z M4.5,22.65625 C5.39746272,22.65625 6.125,23.3837873 6.125,24.28125 C6.125,25.1787127 5.39746272,25.90625 4.5,25.90625 C3.60253728,25.90625 2.875,25.1787127 2.875,24.28125 C2.875,23.3837873 3.60253728,22.65625 4.5,22.65625 Z" id="Shape"></path>
                </g>
            </g>
        </g>
    </g>
</svg>