<svg width="24px" height="26px" viewBox="0 0 24 26" version="1.1" xmlns="http://www.w3.org/2000/svg" xmlns:xlink="http://www.w3.org/1999/xlink">
    <title>mdi:badge-account-horizontal-outline</title>
    <g id="Symbols" stroke="none" stroke-width="1" fill="none" fill-rule="evenodd">
        <g id="sidebar-worker" transform="translate(-48.000000, -158.000000)">
            <g id="mdi:badge-account-horizontal-outline" transform="translate(48.000000, 158.275862)">
                <rect id="ViewBox" x="0" y="0" width="24" height="24.8275862"></rect>
                <path d="M8,9.31034483 C9.1045695,9.31034483 10,10.2366522 10,11.3793103 C10,12.5219684 9.1045695,13.4482759 8,13.4482759 C6.8954305,13.4482759 6,12.5219684 6,11.3793103 C6,10.2366522 6.8954305,9.31034483 8,9.31034483 M12,17.5862069 L4,17.5862069 L4,16.5517241 C4,15.1758621 6.67,14.4827586 8,14.4827586 C9.33,14.4827586 12,15.1758621 12,16.5517241 L12,17.5862069 M20,8.27586207 L14,8.27586207 L14,10.3448276 L20,10.3448276 L20,8.27586207 M20,12.4137931 L14,12.4137931 L14,14.4827586 L20,14.4827586 L20,12.4137931 M20,16.5517241 L14,16.5517241 L14,18.6206897 L20,18.6206897 L20,16.5517241 M22,4.13793103 L14,4.13793103 L14,6.20689655 L22,6.20689655 L22,20.6896552 L2,20.6896552 L2,6.20689655 L10,6.20689655 L10,4.13793103 L2,4.13793103 C0.8954305,4.13793103 0,5.06423845 0,6.20689655 L0,20.6896552 C0,21.8323133 0.8954305,22.7586207 2,22.7586207 L22,22.7586207 C23.1045695,22.7586207 24,21.8323133 24,20.6896552 L24,6.20689655 C24,5.06423845 23.1045695,4.13793103 22,4.13793103 M13,6.20689655 L11,6.20689655 L11,2.06896552 L13,2.06896552 L13,6.20689655 Z" id="Shape" fill="#000" fill-rule="nonzero"></path>
            </g>
        </g>
    </g>
</svg>