<?xml version="1.0" encoding="UTF-8"?>
<svg width="14px" height="14px" viewBox="0 0 14 14" version="1.1" xmlns="http://www.w3.org/2000/svg" xmlns:xlink="http://www.w3.org/1999/xlink">
    <title>1</title>
    <g id="Symbols" stroke="none" stroke-width="1" fill="none" fill-rule="evenodd">
        <g id="Worker-min-unem" transform="translate(-38.000000, -193.000000)" fill="#3BA75A" fill-rule="nonzero">
            <g id="Group-5" transform="translate(38.000000, 190.000000)">
                <g id="1" transform="translate(0.000000, 3.000000)">
                    <path d="M8.48326198,4.30169096 L6.28395801,6.86557808 L5.51403023,5.9683764 C5.44204553,5.88441576 5.35375572,5.81505938 5.25418831,5.76426097 C5.15463233,5.71347366 5.04575262,5.68223275 4.93376499,5.67233739 C4.82178879,5.66244202 4.7088985,5.67408101 4.60153846,5.7065991 C4.49418985,5.73910609 4.3944739,5.79184803 4.30809226,5.86181524 C4.22171062,5.93178244 4.15035436,6.01760888 4.09809118,6.11437463 C4.045828,6.21115149 4.01369769,6.31697967 4.003517,6.42581754 C3.9933363,6.53466652 4.0053109,6.64439286 4.03875522,6.74873285 C4.07221097,6.85308393 4.12647372,6.95000517 4.19845842,7.03396582 L5.62616639,8.69985163 C5.70641219,8.79370764 5.80691655,8.86925001 5.92056096,8.92111458 C6.03421681,8.97299027 6.15820188,8.99992209 6.28376376,9 C6.40931422,9.00007757 6.533345,8.97330123 6.64705798,8.92156993 C6.76077095,8.86983862 6.86137814,8.79441842 6.94174963,8.70067347 L9.79883379,5.36890184 C9.87145835,5.28499672 9.92631526,5.18798664 9.96026233,5.08343564 C9.99422083,4.97888465 10.0065953,4.86884734 9.99668888,4.75963187 C9.98678241,4.65041639 9.95477778,4.5441773 9.90253746,4.44701173 C9.85028571,4.34984617 9.77880376,4.26366434 9.69220502,4.19341949 C9.60560629,4.12316353 9.50558183,4.07023279 9.39787901,4.03763695 C9.29018761,4.00505223 9.17692026,3.99345766 9.06460128,4.00350851 C8.95227087,4.01357046 8.8431055,4.04508902 8.74334384,4.09625392 C8.64358219,4.14742993 8.55520098,4.21724166 8.48326198,4.30169096 Z" id="Path"></path>
                    <path d="M7,0 C5.61552815,0 4.26215982,0.41054337 3.11100982,1.17971106 C1.95987149,1.94888342 1.06265932,3.04213274 0.532846821,4.32122056 C0.00303282773,5.60030838 -0.135590179,7.00777632 0.134505988,8.36563754 C0.404602154,9.72351043 1.07128799,10.9707949 2.05025315,11.9497108 C3.02922649,12.9287783 4.27650982,13.5954123 5.63436982,13.8654958 C6.99224149,14.1355794 8.39970815,13.9969793 9.67878315,13.4671955 C10.9578698,12.9374117 12.0510832,12.0401275 12.8202665,10.8889998 C13.5894498,9.73786045 14,8.38447923 14,7 C13.9980165,5.14409464 13.2598665,3.36476303 11.9475998,2.05243685 C10.6352398,0.740109501 8.85590982,0.00197647512 7,0 L7,0 Z M6.99999982,12.250011 C5.96165482,12.250011 4.94661982,11.9421274 4.08326315,11.3652219 C3.21990649,10.7883514 2.54699649,9.96840565 2.14962982,9.00910146 C1.75227482,8.04978559 1.64831315,6.99418464 1.85088149,5.97577705 C2.05344982,4.95738114 2.55347149,4.02192363 3.28768982,3.28769296 C4.02191982,2.5534623 4.95737649,2.05345185 5.97578315,1.85088334 C6.99417815,1.64830315 8.04977815,1.75227658 9.00909315,2.14963194 C9.96840815,2.54699896 10.7883415,3.2198979 11.3652232,4.08325535 C11.9421165,4.94662446 12.250003,5.96164871 12.250003,7.00000631 C12.2484832,8.39193423 11.6948998,9.72640377 10.7106415,10.7106397 C9.72640649,11.6949105 8.39192649,12.2484944 6.99999982,12.250011 Z" id="Shape"></path>
                </g>
            </g>
        </g>
    </g>
</svg>