<?xml version="1.0" encoding="UTF-8"?>
<svg width="14px" height="14px" viewBox="0 0 14 14" version="1.1" xmlns="http://www.w3.org/2000/svg" xmlns:xlink="http://www.w3.org/1999/xlink">
    <title>2</title>
    <g id="Symbols" stroke="none" stroke-width="1" fill="none" fill-rule="evenodd">
        <g id="Worker-min-unem" transform="translate(-38.000000, -166.000000)" fill="#DBC927" fill-rule="nonzero">
            <g id="Group-4" transform="translate(38.106381, 163.000000)">
                <g id="2" transform="translate(0.000000, 3.499995)">
                    <path d="M4.68293118,3.68127054 C4.68293118,3.68127054 2.03405513,3.96687618 0.26702009,4.15782395 C0.107751108,4.17659232 -0.0330740958,4.28022637 -0.0858839665,4.43771748 C-0.138693837,4.59520859 -0.0858839665,4.75922783 0.0314713018,4.86286187 C1.3441738,6.02894889 3.31658056,7.77522337 3.31658056,7.77522337 C3.31490406,7.77522337 2.77506982,10.3154815 2.416298,12.0104014 C2.38612093,12.1638124 2.44312206,12.3261452 2.58059538,12.4233055 C2.71723044,12.5203571 2.89326334,12.5219891 3.03157491,12.446154 C4.57731144,11.5909691 6.89256324,10.3048733 6.89256324,10.3048733 C6.89256324,10.3048733 9.20865328,11.5909691 10.7518304,12.4469156 C10.8926567,12.5219891 11.0686896,12.5203571 11.2053805,12.4233055 C11.3428538,12.3261452 11.399855,12.1638124 11.3687838,12.011163 C11.0100119,10.3154815 10.4710718,7.77522337 10.4710718,7.77522337 C10.4710718,7.77522337 12.4434227,6.02894889 13.7561252,4.86530992 C13.8734805,4.75841181 13.9254521,4.59439257 13.8734805,4.43771748 C13.8215089,4.28104239 13.6806825,4.17740834 13.5214147,4.15945599 C11.7543796,3.96687618 9.10471004,3.68127054 9.10471004,3.68127054 C9.10471004,3.68127054 8.00660003,1.31645586 7.27480611,-0.26008618 C7.20606945,-0.401256968 7.06189012,-0.49999459 6.89256324,-0.49999459 C6.72323635,-0.49999459 6.57821877,-0.400440951 6.51283512,-0.26008618 C5.78020294,1.31645586 4.68293118,3.68127054 4.68293118,3.68127054 Z" id="Path"></path>
                </g>
            </g>
        </g>
    </g>
</svg>